<svg width="354" height="250" viewBox="0 0 354 250" fill="none" xmlns="http://www.w3.org/2000/svg">
<g clip-path="url(#clip0_31_24)">
<rect y="157.271" width="344" height="104" rx="15" transform="rotate(-27.2055 0 157.271)" fill="#18161C"/>
<path d="M64.4881 148.546L82.1755 139.452C86.5621 137.196 90.5606 136.413 94.1708 137.101C97.7603 137.748 100.652 140.205 102.845 144.471C107.294 153.124 104.628 159.964 94.849 164.992L83.1983 170.982L92.2613 188.609L86.5868 191.527L64.4881 148.546ZM72.6766 150.518L80.7464 166.213L91.6727 160.596C94.7313 159.023 96.816 157.239 97.9269 155.243C99.0573 153.186 98.8673 150.689 97.3568 147.751C96.5085 146.101 95.5232 144.877 94.4011 144.08C93.3193 143.263 92.1207 142.861 90.8053 142.876C89.49 142.891 88.2275 143.108 87.0179 143.526C85.7876 143.904 84.3877 144.497 82.8182 145.304L72.6766 150.518ZM112.875 143.131C114.08 138.745 117.037 135.342 121.746 132.922C126.454 130.501 130.851 130.046 134.936 131.559C139.021 133.071 142.388 136.403 145.036 141.554C147.747 146.826 148.55 151.604 147.444 155.886C146.339 160.169 143.412 163.531 138.663 165.973C133.914 168.415 129.446 168.88 125.26 167.369C121.074 165.857 117.657 162.526 115.008 157.375C112.38 152.264 111.669 147.516 112.875 143.131ZM132.659 136.927C129.79 135.604 126.847 135.718 123.829 137.27C120.81 138.822 118.985 141.159 118.352 144.283C117.719 147.407 118.355 150.82 120.258 154.523C122.224 158.346 124.631 160.899 127.479 162.183C130.346 163.405 133.349 163.21 136.488 161.596C139.507 160.044 141.302 157.747 141.875 154.704C142.488 151.642 141.812 148.198 139.846 144.375C137.943 140.673 135.547 138.19 132.659 136.927ZM171.008 120.187L165.877 122.825C163.61 119.208 160.102 118.62 155.353 121.061C153.381 122.075 152.028 123.254 151.295 124.598C150.561 125.942 150.525 127.258 151.187 128.546C151.373 128.908 151.6 129.25 151.867 129.57C152.113 129.851 152.409 130.08 152.755 130.259C153.12 130.376 153.435 130.494 153.7 130.612C154.005 130.71 154.41 130.756 154.916 130.75C155.441 130.684 155.836 130.659 156.099 130.676C156.402 130.673 156.877 130.607 157.523 130.478C158.189 130.289 158.663 130.172 158.946 130.128C159.208 130.044 159.723 129.907 160.49 129.716C161.297 129.505 161.812 129.367 162.034 129.304C163.688 128.861 164.929 128.553 165.757 128.382C166.625 128.19 167.848 128.045 169.426 127.946C171.023 127.786 172.318 127.832 173.313 128.084C174.287 128.296 175.304 128.79 176.365 129.568C177.446 130.284 178.318 131.286 178.98 132.574C180.532 135.593 180.596 138.638 179.174 141.71C177.771 144.721 175.117 147.23 171.214 149.237C166.988 151.41 163.252 152.16 160.006 151.488C156.801 150.796 154.218 148.74 152.256 145.322L157.327 142.715C159.864 146.956 163.809 147.701 169.162 144.949C171.456 143.77 173.049 142.366 173.941 140.737C174.853 139.046 174.906 137.417 174.099 135.847C173.561 134.801 172.754 134.122 171.677 133.81C170.601 133.498 169.548 133.429 168.518 133.603C167.467 133.736 166.013 134.026 164.156 134.471C163.894 134.555 163.692 134.608 163.551 134.63C163.147 134.736 162.28 134.978 160.948 135.358C159.636 135.676 158.677 135.889 158.071 135.997C157.465 136.105 156.577 136.257 155.405 136.452C154.253 136.587 153.342 136.597 152.673 136.483C151.983 136.329 151.192 136.125 150.298 135.872C149.424 135.558 148.67 135.081 148.036 134.44C147.38 133.76 146.794 132.916 146.277 131.91C144.828 129.093 144.746 126.311 146.031 123.565C147.356 120.797 149.829 118.482 153.451 116.62C157.113 114.737 160.536 114.071 163.72 114.622C166.944 115.153 169.373 117.008 171.008 120.187ZM186.756 100.641L188.929 104.867L182.711 108.064L192.053 126.234C192.571 127.24 192.912 127.904 193.078 128.226C193.283 128.527 193.632 128.908 194.123 129.368C194.593 129.788 195.111 129.954 195.676 129.867C196.242 129.779 196.968 129.508 197.853 129.053C198.618 128.66 199.512 128.123 200.537 127.444L202.803 131.851C201.437 132.757 200.17 133.51 199.003 134.11C197.554 134.854 196.264 135.314 195.133 135.489C194.001 135.664 193.07 135.684 192.34 135.551C191.651 135.397 190.926 134.878 190.167 133.997C189.388 133.074 188.802 132.281 188.41 131.618C187.998 130.914 187.367 129.737 186.519 128.087C186.457 127.967 186.415 127.886 186.395 127.846C186.353 127.765 186.301 127.665 186.239 127.544C186.177 127.423 186.126 127.323 186.084 127.242L177.58 110.702L172.328 113.402L170.155 109.177L175.407 106.476L170.659 97.2402L175.79 94.602L180.538 103.838L186.756 100.641ZM230.034 105.332C232.189 113.383 229.524 119.333 222.039 123.182C217.451 125.54 213.114 125.964 209.029 124.451C204.985 122.918 201.659 119.616 199.052 114.545C196.465 109.515 195.703 104.767 196.766 100.303C197.849 95.7776 200.543 92.4079 204.849 90.1939C209.638 87.7316 214.018 87.5406 217.988 89.621C221.977 91.6404 225.244 95.1251 227.789 100.075L228.162 100.8L204.74 112.842L204.866 113.235C206.562 116.535 208.762 118.686 211.465 119.688C214.168 120.69 217.029 120.415 220.047 118.863C222.301 117.704 223.803 116.27 224.552 114.562C225.343 112.833 225.5 110.615 225.024 107.908L230.034 105.332ZM220.708 99.3656C218.935 96.5117 216.84 94.6632 214.422 93.8201C211.984 92.9368 209.477 93.1573 206.901 94.4816C204.406 95.7645 202.768 97.6752 201.987 100.214C201.206 102.752 201.41 105.573 202.598 108.677L220.708 99.3656ZM240.746 71.9664L243.477 77.2786C243.094 77.4246 242.641 77.6321 242.118 77.9011C240.468 78.7494 239.174 79.7456 238.236 80.8895C237.277 81.9932 236.642 83.1337 236.331 84.311C236.061 85.4677 236.015 86.7635 236.193 88.1984C236.371 89.6333 236.69 90.9958 237.15 92.2859C237.65 93.5553 238.293 94.9547 239.079 96.484L245.845 109.644L240.714 112.282L224.699 81.1329L229.589 78.6189L233.034 85.3196C232.541 79.3143 235.112 74.8632 240.746 71.9664ZM272.758 67.8717L267.627 70.5099C265.36 66.8925 261.852 66.3046 257.104 68.7462C255.132 69.7601 253.779 70.939 253.045 72.283C252.311 73.627 252.276 74.943 252.938 76.2308C253.124 76.593 253.35 76.9345 253.617 77.2553C253.863 77.5359 254.159 77.7653 254.505 77.9435C254.871 78.0608 255.186 78.1787 255.45 78.2972C255.755 78.395 256.16 78.441 256.666 78.4353C257.192 78.3687 257.586 78.344 257.849 78.3613C258.153 78.3578 258.628 78.2918 259.274 78.1631C259.94 77.9734 260.414 77.8568 260.697 77.8131C260.959 77.7292 261.474 77.5919 262.24 77.4011C263.048 77.1896 263.562 77.0523 263.784 76.9891C265.439 76.5454 266.68 76.238 267.508 76.0668C268.376 75.8748 269.599 75.7295 271.176 75.6308C272.773 75.4712 274.069 75.5173 275.063 75.7692C276.037 75.9809 277.055 76.4754 278.116 77.2527C279.197 77.9692 280.068 78.9713 280.73 80.2591C282.282 83.2774 282.347 86.3226 280.924 89.3947C279.521 92.4058 276.868 94.9149 272.964 96.922C268.738 99.0946 265.003 99.845 261.757 99.1732C258.551 98.4807 255.968 96.4252 254.007 93.0067L259.078 90.3995C261.615 94.6413 265.56 95.3862 270.912 92.6342C273.206 91.4548 274.799 90.0505 275.692 88.4214C276.604 86.7313 276.656 85.1015 275.849 83.532C275.311 82.4856 274.504 81.8066 273.428 81.4949C272.352 81.1832 271.299 81.1141 270.268 81.2876C269.217 81.4209 267.763 81.7105 265.907 82.1564C265.644 82.2403 265.443 82.2931 265.301 82.315C264.898 82.4207 264.03 82.6632 262.699 83.0425C261.387 83.3609 260.428 83.574 259.822 83.682C259.216 83.7901 258.327 83.9417 257.155 84.1371C256.003 84.2715 255.093 84.2817 254.424 84.1678C253.734 84.0137 252.942 83.8101 252.049 83.557C251.175 83.2431 250.421 82.7658 249.786 82.1253C249.131 81.4446 248.545 80.6012 248.027 79.5951C246.579 76.778 246.497 73.9961 247.782 71.2494C249.106 68.482 251.58 66.1672 255.202 64.305C258.864 62.422 262.287 61.7561 265.471 62.3072C268.695 62.8376 271.124 64.6924 272.758 67.8717Z" fill="white"/>
</g>
<defs>
<clipPath id="clip0_31_24">
<rect y="157.271" width="344" height="104" rx="15" transform="rotate(-27.2055 0 157.271)" fill="white"/>
</clipPath>
</defs>
</svg>
