<svg width="40" height="40" viewBox="0 0 40 40" fill="none" xmlns="http://www.w3.org/2000/svg">
<path d="M20 16.6665C19.3407 16.6665 18.6963 16.862 18.1481 17.2283C17.5999 17.5945 17.1727 18.1151 16.9204 18.7242C16.6681 19.3333 16.6021 20.0035 16.7307 20.6501C16.8593 21.2967 17.1768 21.8907 17.643 22.3569C18.1092 22.823 18.7031 23.1405 19.3497 23.2691C19.9963 23.3977 20.6665 23.3317 21.2756 23.0794C21.8847 22.8271 22.4053 22.3999 22.7716 21.8517C23.1378 21.3036 23.3333 20.6591 23.3333 19.9998C23.3333 19.1158 22.9821 18.2679 22.357 17.6428C21.7319 17.0177 20.8841 16.6665 20 16.6665ZM8.33333 16.6665C7.67406 16.6665 7.0296 16.862 6.48143 17.2283C5.93327 17.5945 5.50603 18.1151 5.25374 18.7242C5.00144 19.3333 4.93543 20.0035 5.06405 20.6501C5.19267 21.2967 5.51014 21.8907 5.97631 22.3569C6.44249 22.823 7.03643 23.1405 7.68303 23.2691C8.32964 23.3977 8.99986 23.3317 9.60895 23.0794C10.218 22.8271 10.7386 22.3999 11.1049 21.8517C11.4712 21.3036 11.6667 20.6591 11.6667 19.9998C11.6667 19.1158 11.3155 18.2679 10.6904 17.6428C10.0652 17.0177 9.21739 16.6665 8.33333 16.6665ZM31.6667 16.6665C31.0074 16.6665 30.3629 16.862 29.8148 17.2283C29.2666 17.5945 28.8394 18.1151 28.5871 18.7242C28.3348 19.3333 28.2688 20.0035 28.3974 20.6501C28.526 21.2967 28.8435 21.8907 29.3096 22.3569C29.7758 22.823 30.3698 23.1405 31.0164 23.2691C31.663 23.3977 32.3332 23.3317 32.9423 23.0794C33.5514 22.8271 34.072 22.3999 34.4382 21.8517C34.8045 21.3036 35 20.6591 35 19.9998C35 19.1158 34.6488 18.2679 34.0237 17.6428C33.3986 17.0177 32.5507 16.6665 31.6667 16.6665Z" fill="white"/>
</svg>
