<svg width="441" height="177" viewBox="0 0 441 177" fill="none" xmlns="http://www.w3.org/2000/svg">
<g clip-path="url(#clip0_214_53)">
<path d="M22.2996 48.4998H13.4996V85.8998H0.599609V0.799805H13.4996V34.8998H22.2996V0.799805H35.1996V85.9998H22.2996V48.4998Z" fill="white"/>
<path d="M57.3996 86.9H54.8996C44.5996 86.9 39.0996 81.3 39.0996 70.8V53.7H51.8996V68.6C51.8996 72.5 53.1996 74.6 56.0996 74.6C59.1996 74.6 60.2996 72.5 60.2996 67.3V65.4C60.2996 59.3 59.6996 57.2 54.9996 51.1L46.8996 40.4C41.3996 33.3 39.7996 27.8 39.7996 19.3V16.6C39.7996 5.3 45.4996 0 55.6996 0H58.0996C68.6996 0 72.8996 4.7 72.8996 14.8V28.8H60.3996V16.5C60.3996 13.6 59.7996 11.5 56.6996 11.5C53.5996 11.5 52.8996 13.4 52.8996 17.5V19.1C52.8996 23.9 53.7996 26.5 58.1996 32.2L66.3996 42.8C72.1996 50.4 74.0996 54.7 74.0996 64.3V67C74.0996 79.5 68.6996 86.9 57.3996 86.9Z" fill="white"/>
<path d="M107.199 0.799805V13.1998H90.6988V35.4998H103.599V48.3998H90.6988V72.9998H107.899V85.8998H77.7988V0.799805H107.199Z" fill="white"/>
<path d="M142.8 69.9002H133.4L131.7 85.9002H120.1L130.5 0.700195H145.8L156.9 85.9002H144.4L142.8 69.9002ZM141.4 57.2002L138 25.7002L134.7 57.2002H141.4Z" fill="white"/>
<path d="M172 85.9998H159.1V0.799805H180.1C188.7 0.799805 193 4.49981 193 13.9998V29.0998C193 36.1998 189.7 38.8998 187.4 39.9998C190.3 41.2998 193 43.5998 193 49.2998V79.1998C193 82.5998 193.7 84.1998 194.3 85.4998V86.0998H181.5C180.9 85.1998 180.2 83.6998 180.2 79.0998V53.2998C180.2 49.4998 179.5 47.8998 175.4 47.8998H172.1L172 85.9998ZM172 35.7998H175.4C179 35.7998 180.1 33.4998 180.1 29.6998V17.7998C180.1 14.0998 179.3 12.2998 175.4 12.2998H172V35.7998Z" fill="white"/>
<path d="M219.1 13.0998V85.8998H206.3V13.0998H195.4V0.799805H230V13.1998L219.1 13.0998Z" fill="white"/>
<path d="M264.6 69.9002H255.2L253.5 85.9002H241.9L252.3 0.700195H267.6L278.7 85.9002H266.2L264.6 69.9002ZM263.2 57.2002L259.8 25.7002L256.5 57.2002H263.2Z" fill="white"/>
<path d="M292.499 0.799805L303.599 46.4998V0.799805H315.399V85.9998H304.899L292.499 36.9998V85.9998H280.799V0.799805H292.499Z" fill="white"/>
<path d="M320.199 0.799805H340.099C351.199 0.799805 354.599 7.09981 354.599 17.1998V69.0998C354.599 79.4998 350.699 85.9998 340.099 85.9998H320.299V0.799805H320.199ZM333.199 73.5998H336.299C340.199 73.5998 341.299 71.4998 341.299 66.9998V18.9998C341.299 14.0998 339.999 12.3998 336.799 12.3998H333.099V73.5998H333.199Z" fill="white"/>
<path d="M0.599609 90.3999H20.3996C31.4996 90.3999 34.8996 96.6999 34.8996 106.8V158.7C34.8996 169.1 30.9996 175.6 20.3996 175.6H0.599609V90.3999ZM13.4996 163.3H16.5996C20.4996 163.3 21.5996 161.2 21.5996 156.7V108.7C21.5996 103.8 20.2996 102.1 17.0996 102.1H13.3996V163.3H13.4996Z" fill="white"/>
<path d="M69 90.3999V102.8H52.5V125.1H65.4V138H52.5V162.6H69.7V175.5H39.5V90.3999H69Z" fill="white"/>
<path d="M90.3 176.5H87.8C77.5 176.5 72 170.9 72 160.4V143.3H84.8V158.2C84.8 162.1 86.1 164.2 89 164.2C92.1 164.2 93.2 162.1 93.2 156.9V155C93.2 148.9 92.6 146.8 87.9 140.7L79.7 130.2C74.2 123.1 72.6 117.6 72.6 109.1V106.4C72.6 95.0998 78.3 89.7998 88.5 89.7998H90.9C101.6 89.7998 105.7 94.4998 105.7 104.6V118.6H93.2V106.3C93.2 103.4 92.6 101.3 89.5 101.3C86.4 101.3 85.7 103.2 85.7 107.3V108.9C85.7 113.7 86.6 116.3 91 122L99.2 132.6C105 140.2 106.9 144.5 106.9 154.1V156.8C107 169.1 101.6 176.5 90.3 176.5Z" fill="white"/>
<path d="M123.599 175.6H110.699V90.3999H123.599V175.6Z" fill="white"/>
<path d="M140.4 176.8C132.8 176.8 128 170 128 161.2V107.9C128 98.4001 131.7 89.6001 143.9 89.6001H146.4C160.3 89.6001 161.9 98.6001 161.9 108.7V117.4H149.3V107.8C149.3 104 148.4 102 145.2 102C142.5 102 141.2 104.1 141.2 107.8V157.6C141.2 161.6 142.8 163.7 145.4 163.7C148.7 163.7 150.2 161.4 150.2 158.2V136.9H144.4V123.8H162.5V175.6H155.2C155.1 175.1 154.1 170.9 153 167.2C152.1 170.1 147.7 176.7 141.2 176.7H140.4V176.8Z" fill="white"/>
<path d="M178.7 90.3999L189.8 136.1V90.3999H201.6V175.6H191.1L178.7 126.6V175.6H167V90.3999H178.7Z" fill="white"/>
<path d="M235.4 176.5H232.9C222.6 176.5 217.1 170.9 217.1 160.4V143.3H229.9V158.2C229.9 162.1 231.2 164.2 234.1 164.2C237.2 164.2 238.3 162.1 238.3 156.9V155C238.3 148.9 237.7 146.8 233 140.7L224.8 130.2C219.3 123.1 217.7 117.6 217.7 109.1V106.4C217.7 95.0998 223.4 89.7998 233.6 89.7998H236C246.6 89.7998 250.8 94.4998 250.8 104.6V118.6H238.3V106.3C238.3 103.4 237.7 101.3 234.6 101.3C231.5 101.3 230.8 103.2 230.8 107.3V108.9C230.8 113.7 231.7 116.3 236.1 122L244.3 132.6C250.1 140.2 252 144.5 252 154.1V156.8C252.1 169.1 246.7 176.5 235.4 176.5Z" fill="white"/>
<path d="M276.899 158.3V138.5H289.599V158.2C289.599 167.4 286.599 176.6 274.099 176.6H271.199C258.099 176.6 255.299 167.2 255.299 158.6V106.6C255.299 97.9 259.099 89.5 270.799 89.5H273.799C287.999 89.5 289.599 98.9 289.599 107.2V122.4H276.899V107.4C276.899 103.7 275.799 101.8 272.499 101.8C269.299 101.8 268.499 103.6 268.499 107.4V158C268.499 161.8 269.799 163.8 272.599 163.8C275.799 164.1 276.899 161.8 276.899 158.3Z" fill="white"/>
<path d="M315.499 138.2H306.699V175.6H293.799V90.3999H306.699V124.5H315.499V90.3999H328.399V175.6H315.499V138.2Z" fill="white"/>
<path d="M368.3 156.6C368.3 168.5 364.3 176.6 351.8 176.6H349.6C337.2 176.6 332.9 168.5 332.9 156.6V109.2C332.9 97.4001 337.4 89.6001 349.5 89.6001H351.7C364.3 89.6001 368.3 97.4001 368.3 109.1V156.6ZM355.1 108.5C355.1 104 353.6 102 350.6 102C347.3 102 346 104.2 346 108.5V157.5C346 161.2 347 164 350.7 164C354.1 164 355.1 161.1 355.1 157.5V108.5Z" fill="white"/>
<path d="M407.8 156.6C407.8 168.5 403.8 176.6 391.3 176.6H389.1C376.7 176.6 372.4 168.5 372.4 156.6V109.2C372.4 97.4001 376.9 89.6001 389 89.6001H391.2C403.8 89.6001 407.8 97.4001 407.8 109.1V156.6ZM394.6 108.5C394.6 104 393.1 102 390.1 102C386.8 102 385.5 104.2 385.5 108.5V157.5C385.5 161.2 386.5 164 390.2 164C393.6 164 394.6 161.1 394.6 157.5V108.5Z" fill="white"/>
<path d="M425.199 90.3999V162.4H440.999V175.6H412.299V90.3999H425.199Z" fill="white"/>
</g>
<defs>
<clipPath id="clip0_214_53">
<rect width="441" height="177" fill="white"/>
</clipPath>
</defs>
</svg>
