<svg width="115" height="30" viewBox="0 0 115 30" fill="none" xmlns="http://www.w3.org/2000/svg">
<path d="M13.7493 0.257479V11.7582H10.917V4.4458L7.94743 11.7582H6.31673L3.34714 4.4458L3.34714 11.7582H0.514879L0.514879 0.257479L4.44572 0.257479L7.14066 7.08925L9.85277 0.257479L13.7493 0.257479Z" fill="white"/>
<path d="M26.8528 11.7582H23.6429L22.8361 9.62971H18.3732L17.5836 11.7582H14.4938L19.0769 0.257479L22.2525 0.257479L26.8528 11.7582ZM20.5875 3.72486L19.2829 7.22657H21.9264L20.5875 3.72486Z" fill="white"/>
<path d="M33.543 0.257479C34.6873 0.257479 35.6486 0.646558 36.4267 1.42472C37.2049 2.19143 37.594 3.15268 37.594 4.30848C37.594 5.4986 37.1992 6.47702 36.4095 7.24374C35.6314 8.01045 34.6759 8.39381 33.543 8.39381L30.436 8.39381V11.7582H27.6038V0.257479L33.543 0.257479ZM30.436 5.71603H33.2855C33.686 5.71603 34.0236 5.59015 34.2982 5.33839C34.5729 5.08664 34.7102 4.74905 34.7102 4.32564C34.7102 3.93656 34.5671 3.62187 34.2811 3.38155C34.0064 3.1298 33.6746 3.00392 33.2855 3.00392H30.436V5.71603Z" fill="white"/>
<path d="M47.2794 6.96909L50.1804 6.96909C50.0316 8.43386 49.4251 9.64115 48.3609 10.591C47.2966 11.5408 45.9463 12.0157 44.3099 12.0157C42.5247 12.0157 41.0828 11.4435 39.9842 10.2991C38.8856 9.1548 38.3363 7.73581 38.3363 6.04217C38.3363 4.33709 38.8856 2.90665 39.9842 1.75086C41.0828 0.583619 42.5247 0 44.3099 0C45.9005 0 47.2279 0.469184 48.2922 1.40755C49.3564 2.33447 49.9744 3.50743 50.146 4.92643L47.2108 4.92643C47.0391 4.27415 46.6958 3.75347 46.1809 3.36439C45.6659 2.96387 45.0308 2.76933 44.2755 2.78077C43.3257 2.79221 42.5762 3.10691 42.0269 3.72486C41.489 4.34281 41.2201 5.1038 41.2201 6.00784C41.2201 6.91187 41.4948 7.67859 42.044 8.30798C42.5933 8.92593 43.3486 9.23491 44.3099 9.23491C45.0766 9.23491 45.7231 9.03464 46.2495 8.63412C46.7759 8.22215 47.1192 7.66715 47.2794 6.96909Z" fill="white"/>
<path d="M11.0372 15.2859V24.0401H12.5306V29.1211H9.83568V26.7866H2.69493V29.1211H0L0 24.0401H0.514957C0.652279 24.0401 0.766714 24.0287 0.858262 24.0058C0.961254 23.9829 1.09285 23.8685 1.25306 23.6625C1.41327 23.4565 1.52198 23.159 1.57919 22.7699C1.63641 22.3808 1.67647 21.6828 1.69935 20.6758C1.73368 19.6687 1.75085 18.5759 1.75085 17.3972C1.76229 16.2071 1.76802 15.5033 1.76802 15.2859H11.0372ZM4.08533 24.0401H8.20498V18.0323H4.46295C4.41718 20.7902 4.34853 22.501 4.25698 23.1647C4.19976 23.5424 4.14254 23.8342 4.08533 24.0401Z" fill="white"/>
<path d="M19.7028 27.856C18.7609 28.8459 18.7609 28.8459 18.7609 28.8459C18.7609 28.8459 18.7609 28.8459 17.8084 27.856C16.8559 26.8661 12.6245 22.7528 12.6245 21.0706C12.6245 19.3769 13.1852 17.9465 14.3067 16.7792C15.4282 15.612 16.8986 15.0284 18.7182 15.0284C20.5377 15.0284 22.0082 15.612 23.1296 16.7792C24.2511 17.9465 24.8118 19.3769 24.8118 21.0706C24.8118 22.7528 20.6447 26.8661 19.7028 27.856ZM18.7182 26.4564C19.6908 26.4564 20.469 23.9486 21.0526 23.3192C21.6363 22.6898 21.9281 21.9288 21.9281 21.0362C21.9281 20.1322 21.6363 19.3712 21.0526 18.7532C20.4805 18.1238 19.7023 17.8092 18.7182 17.8092C17.734 17.8092 16.9501 18.1238 16.3665 18.7532C15.7943 19.3712 15.5083 20.1322 15.5083 21.0362C15.5083 21.9288 15.7943 22.6898 16.3665 23.3192C16.9501 23.9486 17.734 26.4564 18.7182 26.4564Z" fill="white"/>
<path d="M34.5421 21.9975H37.443C37.2942 23.4622 36.6878 24.6695 35.6235 25.6194C34.5593 26.5692 33.209 27.0441 31.5725 27.0441C29.7874 27.0441 28.3454 26.4719 27.2469 25.3275C26.1483 24.1832 25.599 22.7642 25.599 21.0706C25.599 19.3655 26.1483 17.935 27.2469 16.7792C28.3454 15.612 29.7874 15.0284 31.5725 15.0284C33.1632 15.0284 34.4906 15.4976 35.5549 16.4359C36.6191 17.3629 37.237 18.5358 37.4087 19.9548H34.4734C34.3018 19.3025 33.9585 18.7819 33.4435 18.3928C32.9286 17.9922 32.2935 17.7977 31.5382 17.8092C30.5884 17.8206 29.8388 18.1353 29.2895 18.7532C28.7517 19.3712 28.4828 20.1322 28.4828 21.0362C28.4828 21.9403 28.7574 22.707 29.3067 23.3364C29.856 23.9543 30.6113 24.2633 31.5725 24.2633C32.3393 24.2633 32.9858 24.063 33.5122 23.6625C34.0386 23.2505 34.3819 22.6955 34.5421 21.9975Z" fill="white"/>
<path d="M37.4987 15.2859H47.7807V18.0323H44.0558V26.7866H41.2235V18.0323H37.4987V15.2859Z" fill="white"/>
<path d="M58.5372 26.7866H55.3274L54.5206 24.6581H50.0576L49.268 26.7866H46.1783L50.7614 15.2859H53.937L58.5372 26.7866ZM52.2719 18.7532L50.9674 22.255H53.6108L52.2719 18.7532Z" fill="white"/>
<path d="M67.3044 20.7273V20.7959C67.8537 20.9905 68.3057 21.3166 68.6604 21.7743C69.0152 22.2321 69.1925 22.7985 69.1925 23.4737C69.1925 24.4349 68.8492 25.2303 68.1626 25.8597C67.4875 26.4776 66.6578 26.7866 65.6737 26.7866L59.2882 26.7866V15.2859H65.4677C66.4404 15.2859 67.2529 15.5662 67.9052 16.127C68.5574 16.6877 68.8836 17.4201 68.8836 18.3241C68.8836 18.8505 68.7405 19.3311 68.4545 19.766C68.1684 20.1894 67.785 20.5098 67.3044 20.7273ZM64.9012 17.8092L62.1205 17.8092V19.8518L64.9012 19.8518C65.2217 19.8518 65.4791 19.7488 65.6737 19.5428C65.8797 19.3254 65.9827 19.0851 65.9827 18.8219C65.9827 18.5587 65.8854 18.3241 65.6909 18.1181C65.4963 17.9121 65.2331 17.8092 64.9012 17.8092ZM62.1205 24.2805L65.1416 24.2805C65.4734 24.2805 65.7481 24.166 65.9655 23.9372C66.1829 23.7083 66.2916 23.4508 66.2916 23.1647C66.2916 22.9015 66.1829 22.6726 65.9655 22.4781C65.7481 22.2721 65.4734 22.1691 65.1416 22.1691L62.1205 22.1691V24.2805Z" fill="white"/>
<path d="M80.6505 15.2859V26.7866H77.8182V18.0151H74.2478C74.2021 20.9676 74.1334 22.7699 74.0419 23.4222C73.9503 24.063 73.8016 24.6123 73.5956 25.0701C73.3896 25.5164 73.1779 25.8482 72.9605 26.0657C72.743 26.2831 72.4684 26.449 72.1365 26.5634C71.8047 26.6779 71.5472 26.7465 71.3641 26.7694C71.1925 26.7809 70.9578 26.7866 70.6603 26.7866H69.7506V23.9543H70.2998C70.4372 23.9543 70.5516 23.9429 70.6432 23.92C70.7461 23.8971 70.8778 23.7827 71.038 23.5767C71.1982 23.3707 71.3069 23.0732 71.3641 22.6841C71.4213 22.295 71.4614 21.6084 71.4843 20.6243C71.5186 19.6287 71.5358 18.5473 71.5358 17.38C71.5472 16.2013 71.5529 15.5033 71.5529 15.2859H80.6505Z" fill="white"/>
<path d="M93.1988 15.2859V26.7866H90.3665V23.0789H86.3327C85.8978 23.0789 85.6804 23.2906 85.6804 23.714V26.7866H82.8482V23.2162C82.8482 21.9803 83.3402 21.2422 84.3244 21.0019V20.9332C83.5691 20.3954 83.1915 19.5829 83.1915 18.4958C83.1915 17.4658 83.5577 16.6762 84.29 16.127C85.0339 15.5662 86.0237 15.2859 87.2596 15.2859H93.1988ZM87.4999 20.5728H90.3665V18.0323H87.4828C87.0479 18.0323 86.6932 18.141 86.4185 18.3584C86.1439 18.5759 86.0066 18.8791 86.0066 19.2682C86.0066 19.6802 86.1381 20.0006 86.4013 20.2295C86.676 20.4583 87.0422 20.5728 87.4999 20.5728Z" fill="white"/>
<path d="M104.02 26.7866H95.0602V15.2859L104.02 15.2859V18.0323H97.8925V19.6802H103.162V22.255H97.8925V24.0401H104.02V26.7866Z" fill="white"/>
<path d="M104.718 15.2859H115V18.0323H111.275V26.7866H108.443V18.0323H104.718V15.2859Z" fill="white"/>
</svg>
