<svg width="1131" height="501" viewBox="0 0 1131 501" fill="none" xmlns="http://www.w3.org/2000/svg">
<path d="M66.5287 136.549C47.5844 200.517 47.5844 268.605 66.5287 332.574C63.5611 331.465 60.6557 330.197 57.8253 328.775C42.2929 289.288 38.2467 248.314 41.6571 206.201C34.9024 244.615 31.7481 287.711 49.1714 323.994C47.3217 322.854 46.4134 322.26 44.6298 321.038C22.8795 287.091 10.006 250.56 11.864 209.925C6.43054 248.438 13.821 283.507 36.8017 315.084C34.3925 313.1 32.0908 310.988 29.9066 308.759C-9.96062 264.746 -9.97714 204.384 29.9066 160.355C32.9365 157.252 36.1905 154.376 39.6422 151.751C20.65 183.17 19.8242 217.67 25.4228 253.178C26.4137 213.682 36.876 177.109 54.6792 141.966C58.4871 139.864 62.4482 138.054 66.5287 136.549Z" fill="white"/>
<path d="M111.359 339.253C107.576 339.548 103.778 339.603 99.9884 339.418C98.5846 327.654 97.156 315.896 95.7027 304.142C88.1223 303.878 84.3982 303.606 77.0985 302.788C77.4123 314.076 77.883 325.306 79.1877 336.52C75.7809 335.727 72.425 334.728 69.1383 333.531C54.9189 268.09 69.0888 195.49 84.1918 131.503C87.807 130.776 91.4638 130.274 95.1412 130C97.3625 199.974 108.205 269.337 111.359 339.253ZM84.9349 189.834C82.0531 212.74 79.774 235.663 78.2794 258.71C83.1265 258.85 85.579 258.908 90.5253 258.982C88.1554 235.96 86.2066 212.938 84.9267 189.834H84.9349Z" fill="white"/>
<path d="M123.663 337.676C120.449 338.316 117.201 338.771 113.936 339.038C118.791 269.468 118.791 199.644 113.936 130.074C120.735 130.574 127.453 131.868 133.952 133.93C137.973 135.128 142.325 140.189 147.122 149.273C153.654 161.659 157.23 175.011 159.509 188.57C161.936 202.79 162.151 218.405 157.989 232.591V233.904C165.528 245.151 163.043 261.6 161.804 274.126C159.001 293.152 154.319 311.853 147.824 329.955C144.953 331.31 142.009 332.503 139.005 333.531C143.861 317.445 146.718 300.93 149.022 284.332C149.955 276.901 149.344 273.086 147.478 273.251C140.533 273.862 136.991 274.077 129.773 274.473C128.568 295.629 126.859 316.71 123.663 337.676ZM128.683 176.927C129.873 193.029 130.426 209.131 130.707 225.275C136.016 225.333 138.642 225.374 143.828 225.456C145.892 225.498 147.494 223.285 148.543 218.95C149.591 214.614 149.905 208.586 149.302 201.014C148.741 193.855 147.544 188.397 145.95 184.408C144.356 180.42 142.647 178.331 140.847 178.116C136.049 177.555 133.613 177.315 128.683 176.927Z" fill="white"/>
<path d="M160.812 146.251C166.492 149.75 171.755 153.884 176.502 158.571C185.453 167.918 192.43 179.248 197.534 191.106C190.877 188.634 184.083 186.547 177.187 184.855C176.361 184.648 175.998 185.284 175.998 186.803C176.066 188.868 176.342 190.921 176.824 192.93C177.905 198.083 179.119 201.617 180.754 203.318C186.606 208.939 192.474 214.527 198.359 220.081C201.968 223.599 205.13 229.99 206.443 239.032C207.739 248.757 206.764 258.649 203.595 267.933C199.747 279.56 192.711 290.336 185.023 299.849C177.757 308.816 172.398 314.275 169.532 316.57C164.174 321.029 158.303 324.832 152.043 327.899C157.823 314.687 161.754 301.096 165.024 287.066C172.698 285.54 180.286 283.611 187.757 281.286C188.475 281.063 189.408 279.948 190.449 277.925C191.543 275.843 192.412 273.651 193.041 271.385C194.396 266.505 194.305 263.507 193.099 262.525C188.186 257.735 185.329 254.928 179.128 248.759C175.825 245.39 173.43 238.198 171.217 227.339C168.814 215.531 166.956 203.591 165.04 191.692C163.1 179.619 161.002 167.547 159.021 155.474C157.625 146.845 157.749 144.277 160.812 146.251Z" fill="white"/>
<path d="M1022.59 297.308C1017.35 294.357 1012.59 290.645 1008.44 286.294C981.185 255.055 981.185 215.401 1008.44 184.178C1012.59 179.827 1017.35 176.118 1022.59 173.172C1018.13 181.747 1014.72 190.83 1012.45 200.224C1007.96 201.246 1003.52 202.494 999.162 203.965C997.065 209.314 995.599 214.889 994.791 220.577C999.512 219.931 1001.97 219.636 1007.07 219.102C1005.9 229.289 1005.84 239.575 1006.9 249.775C1001.78 249.297 999.305 249.025 994.568 248.451C995.331 254.64 996.875 260.707 999.162 266.507C1003.52 267.982 1007.96 269.23 1012.45 270.248C1014.72 279.644 1018.13 288.731 1022.59 297.308Z" fill="white"/>
<path d="M1047.5 306.448C1045.31 306.106 1043.14 305.64 1041 305.052C1038.74 297.276 1036.76 289.349 1035.09 281.429C1030.77 280.783 1028.65 280.392 1024.54 279.483C1025.84 288.83 1026.81 293.177 1029.36 300.873C1027.46 300.017 1025.59 299.064 1023.78 298.018C1006.21 257.535 1016.97 207.721 1032.14 168.395C1034.13 167.556 1036.17 166.824 1038.24 166.201C1030.15 212.259 1038.22 261.212 1047.5 306.448ZM1027.44 205.871C1024.92 220.799 1023.41 235.88 1022.91 251.011C1025.67 251.179 1027.07 251.259 1029.9 251.394C1028.15 236.284 1027.33 221.081 1027.44 205.871Z" fill="white"/>
<path d="M1054.98 307.301C1052.99 307.198 1051 306.993 1049.02 306.687C1043.95 259.196 1043.95 211.3 1049.02 163.809C1053.2 163.126 1057.43 162.874 1061.65 163.059C1064.3 163.139 1066.57 166.185 1068.68 172.486C1071.79 181.737 1072.62 191.531 1073.28 201.197C1074 211.884 1073.63 223.329 1070.88 233.808V234.789C1075.88 243.163 1074.62 255.413 1074.43 264.641C1073.69 278.67 1072.7 292.634 1070.96 306.575C1068.61 306.95 1067.42 307.086 1065.03 307.269C1065.69 295.306 1066.17 283.343 1066.53 271.34C1066.67 265.933 1066.11 263.118 1064.93 263.142C1060.44 263.205 1058.13 263.205 1053.64 263.142C1053.87 277.856 1054.27 292.579 1054.98 307.301ZM1053.84 195C1053.57 206.253 1053.45 217.507 1053.38 228.76H1061.74C1063.06 228.76 1064.13 227.165 1064.87 224.023C1065.61 220.88 1065.97 216.502 1065.89 211.023C1065.81 205.855 1065.35 201.931 1064.55 199.131C1063.75 196.332 1062.78 194.96 1061.62 194.944C1058.48 194.912 1056.95 194.912 1053.84 195Z" fill="white"/>
<path d="M1071.93 164.096C1080.39 165.563 1084.44 166.943 1091.87 170.676C1095.76 179.764 1098.7 189.231 1100.64 198.924C1097.15 198.214 1095.35 197.895 1091.71 197.329C1096.21 232.253 1095.88 268.988 1084.98 302.827C1082.82 303.625 1081.71 304.007 1079.48 304.646C1087.97 269.371 1088.16 232.293 1084.67 196.38C1080.92 195.934 1079.01 195.758 1075.14 195.479C1074.3 184.991 1073.39 174.528 1071.93 164.096Z" fill="white"/>
<path d="M1124.06 219.684C1120.6 204.658 1115.41 192.767 1106.4 180.334C1108.12 181.809 1108.96 182.575 1110.56 184.178C1137.81 215.401 1137.82 255.055 1110.56 286.262C1108.97 287.857 1108.12 288.655 1106.4 290.114C1115.81 277.075 1120.99 264.801 1124.33 249.145C1120.01 249.703 1117.77 249.942 1113.16 250.429C1110.77 266.316 1107 281.916 1098.69 295.888C1096.79 297.125 1095.81 297.707 1093.79 298.791C1102.37 278.697 1106.8 257.071 1106.8 235.22C1106.8 213.368 1102.37 191.743 1093.79 171.648C1095.81 172.741 1096.79 173.323 1098.69 174.559C1106.06 188.74 1110.27 202.473 1112.95 218.224C1117.56 218.759 1119.77 219.054 1124.06 219.684Z" fill="white"/>
<line x1="241" y1="235.5" x2="937" y2="235.5" stroke="white"/>
<rect width="37" height="37" transform="translate(559 217)" fill="white"/>
<line x1="577.878" y1="223.607" x2="577.878" y2="246.952" stroke="black" stroke-width="0.598596"/>
<line x1="588.953" y1="235.579" x2="565.607" y2="235.579" stroke="black" stroke-width="0.598596"/>
<path d="M382.462 67.9721C382.462 71.565 381.761 75.1225 380.398 78.4417C379.036 81.7609 377.039 84.7767 374.522 87.3169C372.005 89.857 369.017 91.8719 365.728 93.2465C362.44 94.6211 358.916 95.3286 355.356 95.3286C351.797 95.3286 348.273 94.6211 344.984 93.2465C341.696 91.8719 338.708 89.8571 336.191 87.3169C333.674 84.7767 331.677 81.761 330.315 78.4418C328.952 75.1225 328.251 71.565 328.251 67.9722C328.251 64.3793 328.952 60.8218 330.315 57.5026C331.677 54.1834 333.674 51.1676 336.191 48.6274C338.708 46.0873 341.696 44.0724 344.984 42.6978C348.273 41.3232 351.797 40.6157 355.356 40.6157C358.916 40.6157 362.44 41.3232 365.728 42.6978C369.017 44.0724 372.005 46.0873 374.522 48.6274C377.039 51.1676 379.036 54.1834 380.398 57.5026C381.761 60.8218 382.462 64.3793 382.462 67.9722L382.462 67.9721Z" stroke="white" stroke-width="0.501953"/>
<path d="M414.439 68.119C414.439 73.8214 413.327 79.4678 411.164 84.7359C409.002 90.004 405.833 94.7905 401.838 98.8221C397.843 102.854 393.1 106.052 387.881 108.233C382.662 110.415 377.068 111.538 371.419 111.538C365.77 111.538 360.176 110.415 354.957 108.233C349.738 106.052 344.995 102.854 341 98.8221C337.005 94.7905 333.836 90.004 331.674 84.7359C329.511 79.4678 328.398 73.8214 328.398 68.119C328.398 62.4167 329.511 56.7702 331.674 51.5021C333.836 46.234 337.005 41.4476 341 37.4159C344.995 33.3843 349.738 30.1864 354.957 28.0047C360.176 25.823 365.77 24.7001 371.419 24.7001C377.068 24.7001 382.662 25.823 387.881 28.0047C393.1 30.1864 397.843 33.3843 401.838 37.4159C405.833 41.4476 409.002 46.234 411.164 51.5021C413.327 56.7702 414.439 62.4167 414.439 68.119L414.439 68.119Z" stroke="white" stroke-width="0.796677"/>
<path d="M462.381 68.1193C462.381 76.9843 460.651 85.7623 457.289 93.9522C453.927 102.142 449.001 109.583 442.79 115.851C436.579 122.119 429.206 127.09 421.092 130.482C412.978 133.874 404.282 135.619 395.5 135.619C386.718 135.619 378.022 133.874 369.908 130.482C361.794 127.09 354.421 122.119 348.21 115.851C341.999 109.583 337.073 102.142 333.711 93.9522C330.349 85.7623 328.619 76.9843 328.619 68.1193C328.619 59.2543 330.349 50.4762 333.711 42.2863C337.073 34.0964 341.999 26.6553 348.21 20.3876C354.421 14.1199 361.794 9.14837 369.908 5.75663C378.022 2.36489 386.718 0.619266 395.5 0.619266C404.282 0.619266 412.978 2.36489 421.092 5.75663C429.206 9.14836 436.579 14.1199 442.79 20.3876C449.001 26.6553 453.927 34.0964 457.289 42.2863C460.651 50.4762 462.381 59.2543 462.381 68.1193L462.381 68.1193Z" stroke="white" stroke-width="1.23853"/>
<path d="M856.721 349.1C868.978 347.643 881.398 349.659 892.564 354.918C903.731 360.178 913.194 368.469 919.876 378.848C926.558 389.226 930.188 401.273 930.354 413.615C930.52 425.957 927.215 438.097 920.815 448.651C914.414 459.205 905.177 467.748 894.156 473.306C883.135 478.864 870.774 481.213 858.483 480.085C846.191 478.958 834.464 474.399 824.638 466.928C814.813 459.458 807.284 449.376 802.911 437.834" stroke="white" stroke-width="1.27885"/>
<circle cx="864.5" cy="414.5" r="37.726" transform="rotate(-20.7499 864.5 414.5)" stroke="white" stroke-width="1.27885"/>
<line x1="609.25" y1="260.567" x2="816.23" y2="380.067" stroke="white"/>
<line x1="779.186" y1="96.3174" x2="609.186" y2="195.817" stroke="white" stroke-width="0.735652"/>
<line x1="540.74" y1="195.76" x2="463.74" y2="118.76" stroke="white" stroke-width="0.735652"/>
<path d="M407.464 63.1093H405.674C405.478 61.2085 404.318 60.2581 402.194 60.2581C401.185 60.2581 400.405 60.4613 399.854 60.8676C399.303 61.274 399.028 61.8442 399.028 62.5784C399.028 62.8405 399.068 63.0699 399.146 63.2666C399.225 63.4632 399.356 63.6402 399.539 63.7975C399.736 63.9417 399.92 64.0662 400.09 64.1711C400.26 64.276 400.529 64.3808 400.896 64.4857C401.263 64.5906 401.558 64.6692 401.781 64.7217C402.004 64.761 402.351 64.8331 402.823 64.938C403.4 65.056 403.879 65.1674 404.259 65.2723C404.639 65.364 405.091 65.5213 405.615 65.7442C406.14 65.967 406.553 66.2161 406.854 66.4914C407.169 66.7536 407.438 67.1075 407.66 67.5532C407.896 67.9989 408.014 68.5036 408.014 69.0673C408.014 70.0505 407.739 70.8763 407.189 71.5449C406.638 72.2004 405.969 72.6592 405.183 72.9213C404.396 73.1835 403.525 73.3146 402.568 73.3146C400.811 73.3146 399.402 72.9017 398.34 72.0758C397.291 71.2368 396.767 70.0046 396.767 68.3791H398.556C398.596 69.572 398.995 70.4437 399.756 70.9943C400.516 71.5318 401.506 71.8005 402.725 71.8005C403.682 71.8005 404.501 71.6039 405.183 71.2106C405.865 70.8042 406.205 70.1488 406.205 69.2443C406.205 68.8248 406.114 68.4708 405.93 68.1824C405.747 67.8809 405.458 67.6384 405.065 67.4549C404.672 67.2583 404.278 67.101 403.885 66.983C403.492 66.865 402.974 66.7339 402.332 66.5897C402.24 66.5766 402.174 66.5635 402.135 66.5504C400.693 66.2227 399.749 65.9605 399.303 65.7638C397.94 65.1739 397.258 64.158 397.258 62.716C397.258 61.3789 397.75 60.3826 398.733 59.7271C399.73 59.0586 400.929 58.7243 402.332 58.7243C403.865 58.7243 405.091 59.0914 406.009 59.8255C406.926 60.5596 407.411 61.6542 407.464 63.1093ZM410.206 58.9996H412.074V67.8285C412.074 69.1918 412.369 70.1881 412.959 70.8174C413.548 71.4466 414.512 71.7612 415.849 71.7612C417.226 71.7612 418.196 71.44 418.759 70.7977C419.336 70.1553 419.624 69.1656 419.624 67.8285V58.9996H421.492V67.3369C421.492 69.3819 421.066 70.8895 420.214 71.8595C419.362 72.8165 417.907 73.295 415.849 73.295C413.856 73.295 412.415 72.8296 411.523 71.8988C410.645 70.955 410.206 69.4999 410.206 67.5336V58.9996ZM424.573 58.9996H430.335C431.764 58.9996 432.898 59.3273 433.737 59.9828C434.576 60.6251 434.995 61.6411 434.995 63.0306C434.995 65.849 433.402 67.2583 430.217 67.2583H426.422V73H424.573V58.9996ZM426.422 60.5923V65.7048H429.981C430.977 65.7048 431.751 65.5213 432.301 65.1543C432.865 64.7741 433.147 64.1055 433.147 63.1486C433.147 62.6111 433.055 62.1654 432.871 61.8115C432.701 61.4575 432.445 61.1954 432.104 61.0249C431.764 60.8545 431.41 60.7431 431.043 60.6907C430.676 60.6251 430.236 60.5923 429.725 60.5923H426.422ZM446.939 58.9996V60.612H439.094V64.997H446.428V66.5504H439.094V71.3876H447.038V73H437.245V58.9996H446.939ZM449.266 58.9996H455.421C458.554 58.9996 460.12 60.2908 460.12 62.8733C460.12 63.6861 459.897 64.4071 459.452 65.0363C459.019 65.6524 458.442 66.0653 457.721 66.2751C458.193 66.38 458.573 66.5307 458.862 66.7273C459.15 66.924 459.36 67.1993 459.491 67.5532C459.622 67.9072 459.707 68.2218 459.747 68.4971C459.786 68.7724 459.819 69.1787 459.845 69.7162C459.845 69.7686 459.852 69.8997 459.865 70.1095C459.878 70.3061 459.884 70.4437 459.884 70.5224C459.884 70.5879 459.891 70.7125 459.904 70.896C459.93 71.0795 459.95 71.2172 459.963 71.3089C459.976 71.4007 459.996 71.5252 460.022 71.6825C460.048 71.8399 460.081 71.9709 460.12 72.0758C460.16 72.1676 460.206 72.279 460.258 72.4101C460.31 72.5281 460.369 72.6395 460.435 72.7444C460.5 72.8361 460.573 72.9213 460.651 73H458.528C458.436 72.8689 458.357 72.705 458.292 72.5084C458.239 72.3118 458.2 72.0824 458.174 71.8202C458.147 71.5449 458.128 71.3286 458.115 71.1713C458.102 71.0009 458.088 70.7584 458.075 70.4437C458.062 70.1291 458.056 69.9522 458.056 69.9128C457.99 68.7199 457.741 67.9268 457.308 67.5336C456.889 67.1403 456.05 66.9436 454.792 66.9436H451.114V73H449.266V58.9996ZM451.114 60.5727V65.4689H454.595C455.027 65.4689 455.388 65.4558 455.676 65.4296C455.978 65.4033 456.306 65.3443 456.66 65.2526C457.013 65.1608 457.295 65.0297 457.505 64.8593C457.728 64.6889 457.911 64.4464 458.056 64.1318C458.2 63.8172 458.272 63.437 458.272 62.9913C458.272 62.0474 457.984 61.4117 457.407 61.0839C456.843 60.7431 456.07 60.5727 455.086 60.5727H451.114ZM477.501 71.3876V73H468.22V58.9996H470.068V71.3876H477.501ZM479.028 58.9996H480.896V67.8285C480.896 69.1918 481.191 70.1881 481.781 70.8174C482.371 71.4466 483.334 71.7612 484.671 71.7612C486.048 71.7612 487.018 71.44 487.581 70.7977C488.158 70.1553 488.447 69.1656 488.447 67.8285V58.9996H490.315V67.3369C490.315 69.3819 489.889 70.8895 489.037 71.8595C488.184 72.8165 486.729 73.295 484.671 73.295C482.679 73.295 481.237 72.8296 480.345 71.8988C479.467 70.955 479.028 69.4999 479.028 67.5336V58.9996ZM493.337 58.9996H495.893L500.396 70.8567L504.741 58.9996H507.317V73H505.567V61.3199L501.182 73H499.57L495.106 61.3199V73H493.337V58.9996ZM520.14 58.9996V60.612H512.294V64.997H519.628V66.5504H512.294V71.3876H520.238V73H510.446V58.9996H520.14ZM522.388 58.9996H524.413L531.807 70.3651V58.9996H533.596V73H531.512L524.158 61.7721V73H522.388V58.9996Z" fill="white"/>
<path d="M752.433 43.9996L757.899 58H755.835L754.281 53.7134H748.402L746.809 58H744.843L750.348 43.9996H752.433ZM753.731 52.2386L751.351 45.7693L748.933 52.2386H753.731ZM768.605 56.3876V58H759.324V43.9996H761.172V56.3876H768.605ZM778.139 43.9996V45.612H773.439V58H771.591V45.612H766.891V43.9996H778.139ZM789.41 43.9996V45.612H781.565V49.997H788.899V51.5504H781.565V56.3876H789.509V58H779.716V43.9996H789.41ZM791.737 43.9996H797.892C801.025 43.9996 802.591 45.2908 802.591 47.8733C802.591 48.6861 802.369 49.4071 801.923 50.0363C801.49 50.6524 800.913 51.0653 800.192 51.2751C800.664 51.38 801.045 51.5307 801.333 51.7273C801.621 51.924 801.831 52.1993 801.962 52.5532C802.093 52.9072 802.178 53.2218 802.218 53.4971C802.257 53.7724 802.29 54.1787 802.316 54.7162C802.316 54.7686 802.323 54.8997 802.336 55.1095C802.349 55.3061 802.355 55.4437 802.355 55.5224C802.355 55.5879 802.362 55.7125 802.375 55.896C802.401 56.0795 802.421 56.2172 802.434 56.3089C802.447 56.4007 802.467 56.5252 802.493 56.6825C802.519 56.8399 802.552 56.9709 802.591 57.0758C802.631 57.1676 802.677 57.279 802.729 57.4101C802.782 57.5281 802.84 57.6395 802.906 57.7444C802.972 57.8361 803.044 57.9213 803.122 58H800.999C800.907 57.8689 800.828 57.705 800.763 57.5084C800.71 57.3118 800.671 57.0824 800.645 56.8202C800.619 56.5449 800.599 56.3286 800.586 56.1713C800.573 56.0009 800.56 55.7584 800.546 55.4437C800.533 55.1291 800.527 54.9522 800.527 54.9128C800.461 53.7199 800.212 52.9268 799.78 52.5336C799.36 52.1403 798.521 51.9436 797.263 51.9436H793.586V58H791.737V43.9996ZM793.586 45.5727V50.4689H797.066C797.499 50.4689 797.859 50.4558 798.147 50.4296C798.449 50.4033 798.777 50.3443 799.131 50.2526C799.485 50.1608 799.766 50.0297 799.976 49.8593C800.199 49.6889 800.383 49.4464 800.527 49.1318C800.671 48.8172 800.743 48.437 800.743 47.9913C800.743 47.0474 800.455 46.4117 799.878 46.0839C799.314 45.7431 798.541 45.5727 797.558 45.5727H793.586ZM805.12 43.9996H807.145L814.538 55.3651V43.9996H816.328V58H814.243L806.889 46.7721V58H805.12V43.9996ZM825.268 43.9996L830.735 58H828.67L827.117 53.7134H821.237L819.645 58H817.678L823.184 43.9996H825.268ZM826.566 52.2386L824.187 45.7693L821.768 52.2386H826.566ZM840.048 43.9996V45.612H835.349V58H833.5V45.612H828.801V43.9996H840.048ZM843.553 43.9996V58H841.704V43.9996H843.553ZM845.122 43.9996H847.167L851.198 56.191L855.268 43.9996H857.215L852.22 58H850.096L845.122 43.9996ZM868.429 43.9996V45.612H860.583V49.997H867.918V51.5504H860.583V56.3876H868.528V58H858.735V43.9996H868.429ZM746.553 59.9996H751.115C753.488 59.9996 755.238 60.5502 756.365 61.6513C757.493 62.7525 758.057 64.496 758.057 66.8818C758.057 69.2283 757.532 71.0046 756.483 72.2106C755.435 73.4035 753.757 74 751.45 74H746.553V59.9996ZM748.402 61.5923V72.4073H751.214C752.97 72.4073 754.242 71.9812 755.028 71.1291C755.828 70.2639 756.228 68.9203 756.228 67.0981C756.228 65.1842 755.841 63.7881 755.068 62.9098C754.294 62.0315 752.983 61.5923 751.135 61.5923H748.402ZM762.326 59.9996V74H760.477V59.9996H762.326ZM765.507 59.9996H768.063L772.566 71.8567L776.912 59.9996H779.488V74H777.738V62.3199L773.353 74H771.74L767.277 62.3199V74H765.507V59.9996ZM792.31 59.9996V61.612H784.464V65.997H791.799V67.5504H784.464V72.3876H792.408V74H782.616V59.9996H792.31ZM794.558 59.9996H796.583L803.977 71.3651V59.9996H805.766V74H803.682L796.328 62.7721V74H794.558V59.9996ZM818.738 64.1093H816.949C816.752 62.2085 815.592 61.2581 813.468 61.2581C812.459 61.2581 811.679 61.4613 811.128 61.8676C810.578 62.274 810.302 62.8442 810.302 63.5784C810.302 63.8405 810.342 64.0699 810.42 64.2666C810.499 64.4632 810.63 64.6402 810.814 64.7975C811.01 64.9417 811.194 65.0662 811.364 65.1711C811.535 65.276 811.803 65.3808 812.17 65.4857C812.537 65.5906 812.832 65.6692 813.055 65.7217C813.278 65.761 813.625 65.8331 814.097 65.938C814.674 66.056 815.153 66.1674 815.533 66.2723C815.913 66.364 816.365 66.5213 816.89 66.7442C817.414 66.967 817.827 67.2161 818.128 67.4914C818.443 67.7536 818.712 68.1075 818.935 68.5532C819.171 68.9989 819.288 69.5036 819.288 70.0673C819.288 71.0505 819.013 71.8763 818.463 72.5449C817.912 73.2004 817.243 73.6592 816.457 73.9213C815.67 74.1835 814.799 74.3146 813.842 74.3146C812.085 74.3146 810.676 73.9017 809.614 73.0758C808.565 72.2368 808.041 71.0046 808.041 69.3791H809.83C809.87 70.572 810.27 71.4437 811.03 71.9943C811.79 72.5318 812.78 72.8005 813.999 72.8005C814.956 72.8005 815.775 72.6039 816.457 72.2106C817.139 71.8042 817.479 71.1488 817.479 70.2443C817.479 69.8248 817.388 69.4708 817.204 69.1824C817.021 68.8809 816.732 68.6384 816.339 68.4549C815.946 68.2583 815.552 68.101 815.159 67.983C814.766 67.865 814.248 67.7339 813.606 67.5897C813.514 67.5766 813.448 67.5635 813.409 67.5504C811.967 67.2227 811.023 66.9605 810.578 66.7638C809.214 66.1739 808.533 65.158 808.533 63.716C808.533 62.3789 809.024 61.3826 810.007 60.7271C811.004 60.0586 812.203 59.7243 813.606 59.7243C815.139 59.7243 816.365 60.0914 817.283 60.8255C818.2 61.5596 818.685 62.6542 818.738 64.1093ZM823.505 59.9996V74H821.657V59.9996H823.505ZM832.566 59.6653C834.689 59.6653 836.341 60.3339 837.521 61.671C838.701 62.995 839.291 64.7319 839.291 66.8818C839.291 69.0448 838.707 70.8276 837.541 72.2303C836.374 73.6329 834.722 74.3343 832.585 74.3343C831.497 74.3343 830.521 74.1376 829.656 73.7444C828.79 73.3511 828.083 72.8071 827.532 72.1123C826.994 71.4175 826.582 70.6244 826.293 69.733C826.018 68.8416 825.88 67.8781 825.88 66.8425C825.88 64.6533 826.483 62.9098 827.689 61.612C828.908 60.3142 830.534 59.6653 832.566 59.6653ZM832.566 61.2777C831.006 61.2777 829.806 61.8283 828.967 62.9295C828.142 64.0175 827.729 65.3677 827.729 66.9801C827.729 68.7367 828.168 70.1394 829.046 71.1881C829.937 72.2237 831.124 72.7415 832.605 72.7415C834.073 72.7415 835.247 72.2172 836.125 71.1685C837.003 70.1197 837.442 68.7236 837.442 66.9801C837.442 65.2497 836.997 63.8668 836.105 62.8311C835.227 61.7955 834.047 61.2777 832.566 61.2777ZM841.528 59.9996H843.553L850.947 71.3651V59.9996H852.736V74H850.652L843.297 62.7721V74H841.528V59.9996ZM865.708 64.1093H863.918C863.722 62.2085 862.561 61.2581 860.438 61.2581C859.428 61.2581 858.648 61.4613 858.098 61.8676C857.547 62.274 857.272 62.8442 857.272 63.5784C857.272 63.8405 857.311 64.0699 857.39 64.2666C857.469 64.4632 857.6 64.6402 857.783 64.7975C857.98 64.9417 858.163 65.0662 858.334 65.1711C858.504 65.276 858.773 65.3808 859.14 65.4857C859.507 65.5906 859.802 65.6692 860.025 65.7217C860.248 65.761 860.595 65.8331 861.067 65.938C861.644 66.056 862.122 66.1674 862.502 66.2723C862.883 66.364 863.335 66.5213 863.859 66.7442C864.384 66.967 864.796 67.2161 865.098 67.4914C865.413 67.7536 865.681 68.1075 865.904 68.5532C866.14 68.9989 866.258 69.5036 866.258 70.0673C866.258 71.0505 865.983 71.8763 865.432 72.5449C864.882 73.2004 864.213 73.6592 863.427 73.9213C862.64 74.1835 861.768 74.3146 860.811 74.3146C859.055 74.3146 857.645 73.9017 856.584 73.0758C855.535 72.2368 855.011 71.0046 855.011 69.3791H856.8C856.839 70.572 857.239 71.4437 857.999 71.9943C858.76 72.5318 859.749 72.8005 860.969 72.8005C861.926 72.8005 862.745 72.6039 863.427 72.2106C864.108 71.8042 864.449 71.1488 864.449 70.2443C864.449 69.8248 864.357 69.4708 864.174 69.1824C863.99 68.8809 863.702 68.6384 863.309 68.4549C862.915 68.2583 862.522 68.101 862.129 67.983C861.736 67.865 861.218 67.7339 860.575 67.5897C860.484 67.5766 860.418 67.5635 860.379 67.5504C858.937 67.2227 857.993 66.9605 857.547 66.7638C856.184 66.1739 855.502 65.158 855.502 63.716C855.502 62.3789 855.994 61.3826 856.977 60.7271C857.973 60.0586 859.173 59.7243 860.575 59.7243C862.109 59.7243 863.335 60.0914 864.252 60.8255C865.17 61.5596 865.655 62.6542 865.708 64.1093Z" fill="white"/>
<path d="M737.433 406L742.899 420H740.835L739.281 415.713H733.402L731.809 420H729.843L735.348 406H737.433ZM738.731 414.239L736.351 407.769L733.933 414.239H738.731ZM753.605 418.388V420H744.324V406H746.172V418.388H753.605ZM764.452 406V407.612H757.098V411.977H763.587V413.531H757.098V420H755.25V406H764.452ZM771.325 406L776.792 420H774.727L773.174 415.713H767.294L765.702 420H763.735L769.241 406H771.325ZM772.623 414.239L770.244 407.769L767.825 414.239H772.623ZM795.821 412.587V420H794.642L794.17 418.25C793.042 419.64 791.535 420.334 789.647 420.334C787.654 420.334 786.042 419.672 784.81 418.348C783.591 417.011 782.981 415.268 782.981 413.118C782.981 410.981 783.584 409.211 784.79 407.809C786.009 406.406 787.674 405.705 789.785 405.705C790.755 405.705 791.659 405.875 792.498 406.216C793.337 406.544 794.052 407.068 794.642 407.789C795.231 408.497 795.566 409.336 795.644 410.306H793.835C793.691 409.388 793.245 408.654 792.498 408.104C791.764 407.54 790.86 407.258 789.785 407.258C788.264 407.258 787.058 407.782 786.167 408.831C785.275 409.867 784.829 411.276 784.829 413.059C784.829 414.815 785.275 416.212 786.167 417.247C787.058 418.283 788.257 418.801 789.765 418.801C791.181 418.801 792.256 418.374 792.99 417.522C793.737 416.657 794.13 415.517 794.17 414.101H789.686V412.587H795.821ZM798.59 406H804.744C807.877 406 809.444 407.291 809.444 409.873C809.444 410.686 809.221 411.407 808.775 412.036C808.343 412.652 807.766 413.065 807.045 413.275C807.517 413.38 807.897 413.531 808.186 413.727C808.474 413.924 808.684 414.199 808.815 414.553C808.946 414.907 809.031 415.222 809.07 415.497C809.11 415.772 809.143 416.179 809.169 416.716C809.169 416.769 809.175 416.9 809.188 417.109C809.201 417.306 809.208 417.444 809.208 417.522C809.208 417.588 809.215 417.712 809.228 417.896C809.254 418.08 809.274 418.217 809.287 418.309C809.3 418.401 809.319 418.525 809.346 418.683C809.372 418.84 809.405 418.971 809.444 419.076C809.483 419.168 809.529 419.279 809.582 419.41C809.634 419.528 809.693 419.64 809.759 419.744C809.824 419.836 809.896 419.921 809.975 420H807.851C807.76 419.869 807.681 419.705 807.615 419.508C807.563 419.312 807.524 419.082 807.497 418.82C807.471 418.545 807.451 418.329 807.438 418.171C807.425 418.001 807.412 417.758 807.399 417.444C807.386 417.129 807.379 416.952 807.379 416.913C807.314 415.72 807.065 414.927 806.632 414.534C806.213 414.14 805.374 413.944 804.115 413.944H800.438V420H798.59V406ZM800.438 407.573V412.469H803.919C804.351 412.469 804.712 412.456 805 412.43C805.302 412.403 805.629 412.344 805.983 412.253C806.337 412.161 806.619 412.03 806.829 411.859C807.052 411.689 807.235 411.446 807.379 411.132C807.524 410.817 807.596 410.437 807.596 409.991C807.596 409.047 807.307 408.412 806.73 408.084C806.167 407.743 805.393 407.573 804.41 407.573H800.438ZM817.93 406L823.397 420H821.332L819.779 415.713H813.899L812.306 420H810.34L815.846 406H817.93ZM819.228 414.239L816.849 407.769L814.43 414.239H819.228ZM822.306 406H824.351L828.382 418.191L832.452 406H834.399L829.405 420H827.281L822.306 406ZM837.847 406V420H835.998V406H837.847ZM850.722 406V407.612H846.023V420H844.174V407.612H839.475V406H850.722ZM863.488 406L858.081 414.278V420H856.252V414.278L850.805 406H853.027L857.215 412.666L861.364 406H863.488Z" fill="white"/>
<rect x="833.355" y="24.3554" width="72.4959" height="58.281" stroke="white" stroke-width="0.710744"/>
<rect x="833.355" y="24.3554" width="27.0083" height="58.281" stroke="white" stroke-width="0.710744"/>
<rect x="833.355" y="24.3554" width="14.2149" height="58.281" stroke="white" stroke-width="0.710744"/>
<rect x="833.355" y="24.3554" width="85.2893" height="58.281" stroke="white" stroke-width="0.710744"/>
</svg>
